<svg width="256" height="334" viewBox="0 0 256 334" fill="none" xmlns="http://www.w3.org/2000/svg">
<path fill-rule="evenodd" clip-rule="evenodd" d="M576.907 173.492C544.995 126.929 490.079 107.773 442.517 77.3383C397.344 48.4326 359.505 -2.15933 305.892 0.0715939C252.448 2.2956 223.089 61.8598 176.644 88.4019C119.509 121.054 25.4956 110.853 3.55313 172.853C-18.1196 234.091 65.5808 282.406 86.1916 343.983C107.2 406.747 77.4761 487.183 124.397 533.883C172.097 581.359 252.667 592.882 317.332 574.036C377.631 556.462 391.173 474.929 443.876 440.771C504.078 401.753 607.774 429.282 639.726 365.086C670.441 303.375 615.858 230.326 576.907 173.492Z" fill="#B3D5D9"/>
</svg>
