<svg width="33" height="33" viewBox="0 0 33 33" fill="none" xmlns="http://www.w3.org/2000/svg">
<path d="M2.94545 29.4545H0V20.6182H8.83636V23.5636H5.184C7.55509 27.1129 11.6051 29.4545 16.2 29.4545C19.7153 29.4545 23.0867 28.0581 25.5724 25.5724C28.0581 23.0867 29.4545 19.7153 29.4545 16.2H32.4C32.4 25.1542 25.1542 32.4 16.2 32.4C10.7215 32.4 5.87618 29.6755 2.94545 25.5224V29.4545ZM0 16.2C0 7.24582 7.24582 0 16.2 0C21.6785 0 26.5238 2.72455 29.4545 6.87764V2.94545H32.4V11.7818H23.5636V8.83636H27.216C24.8449 5.28709 20.7949 2.94545 16.2 2.94545C12.6847 2.94545 9.31333 4.34191 6.82762 6.82762C4.34191 9.31333 2.94545 12.6847 2.94545 16.2H0Z" fill="#A3C4C1"/>
<path d="M13.6224 12.0766C13.6224 13.4609 14.889 14.0058 17.5104 14.8748C21.045 16.0971 21.9433 17.8938 21.9433 19.9409C21.9433 23.8142 18.2615 24.5506 17.6724 24.6831V26.5093H14.727V24.6095C13.8139 24.3444 11.3839 23.4755 10.4561 20.2502L12.9008 19.2635C12.9891 19.5875 13.755 22.3415 16.4353 22.3415C17.805 22.3415 19.3513 21.6346 19.3513 19.9704C19.3513 18.5566 18.3204 17.8055 15.9935 16.9808C14.3735 16.3917 11.0599 15.4491 11.0599 12.106C11.0599 11.9588 11.0746 8.57148 14.727 7.74675V5.89111H17.6724V7.71729C20.2055 8.18857 21.1922 10.3535 21.4131 11.0162L19.0862 12.0029C18.9242 11.4875 18.2173 10.0295 16.2881 10.0295C15.2571 10.0295 13.6224 10.5744 13.6224 12.0766Z" fill="#A3C4C1"/>
</svg>
