<svg width="18" height="18" viewBox="0 0 18 18" fill="none" xmlns="http://www.w3.org/2000/svg">
<g clip-path="url(#clip0_1189_4980)">
<path d="M10.6996 4.27979H12.1262C12.5046 4.27979 12.8675 4.43009 13.135 4.69765C13.4026 4.9652 13.5529 5.32808 13.5529 5.70645V11.4131C13.5529 11.7915 13.4026 12.1544 13.135 12.4219C12.8675 12.6895 12.5046 12.8398 12.1262 12.8398H9.85069M3.56622 12.8398H2.13956C1.76118 12.8398 1.3983 12.6895 1.13075 12.4219C0.8632 12.1544 0.712891 11.7915 0.712891 11.4131V5.70645C0.712891 5.32808 0.8632 4.9652 1.13075 4.69765C1.3983 4.43009 1.76118 4.27979 2.13956 4.27979H4.41509L3.56622 12.8398Z" stroke="#37383C" stroke-width="0.856" stroke-linecap="round" stroke-linejoin="round"/>
<path d="M16.4062 9.27383V7.84717" stroke="#37383C" stroke-width="0.856" stroke-linecap="round" stroke-linejoin="round"/>
<path d="M7.8465 4.27979L4.99316 8.55979H9.27316L6.41983 12.8398" stroke="#37383C" stroke-width="0.856" stroke-linecap="round" stroke-linejoin="round"/>
</g>
<defs>
<clipPath id="clip0_1189_4980">
<rect width="17.12" height="17.12" fill="white"/>
</clipPath>
</defs>
</svg>
