<svg width="20" height="20" viewBox="0 0 20 20" fill="none" xmlns="http://www.w3.org/2000/svg">
<path d="M5.41699 7.91675H1.66699V18.3334H5.41699V7.91675Z" fill="#003F38"/>
<path d="M5.41699 3.54175C5.41699 4.57728 4.57753 5.41675 3.54199 5.41675C2.50646 5.41675 1.66699 4.57728 1.66699 3.54175C1.66699 2.50621 2.50646 1.66675 3.54199 1.66675C4.57753 1.66675 5.41699 2.50621 5.41699 3.54175Z" fill="#003F38"/>
<path d="M11.6671 7.91675H7.91699V18.3334H11.6671V13.1252C11.6671 12.3198 12.3199 11.6669 13.1253 11.6669C13.9307 11.6669 14.5837 12.3198 14.5837 13.1252V18.3334H18.3326L18.3337 11.6669C18.3337 9.59592 16.364 7.91695 14.4143 7.91695C13.3044 7.91695 12.3142 8.461 11.6671 9.31175V7.91675Z" fill="#003F38"/>
</svg>
