<svg width="37" height="37" viewBox="0 0 37 37" fill="none" xmlns="http://www.w3.org/2000/svg">
<path d="M30.2412 8.94354L16.414 3.91659C15.9498 3.74692 15.4516 3.69181 14.9616 3.75594C14.4717 3.82008 14.0044 4.00156 13.5996 4.28496C13.1948 4.56837 12.8643 4.94531 12.6364 5.38377C12.4085 5.82223 12.2898 6.30923 12.2904 6.8034V16.2197C11.3607 15.6658 10.2999 15.3703 9.21768 15.364C5.82849 15.364 3.07227 18.1202 3.07227 21.5094C3.07227 24.8986 5.82849 27.6548 9.21768 27.6548C12.6069 27.6548 15.3631 24.8986 15.3631 21.5094V6.8034L29.1903 11.8303V22.3636C28.2602 21.8108 27.1995 21.516 26.1176 21.5094C22.7284 21.5094 19.9722 24.2656 19.9722 27.6548C19.9722 31.044 22.7284 33.8002 26.1176 33.8002C29.5068 33.8002 32.263 31.044 32.263 27.6548V11.8303C32.263 10.5429 31.4503 9.3814 30.2412 8.94354ZM9.21768 24.5821C7.52308 24.5821 6.14497 23.204 6.14497 21.5094C6.14497 19.8148 7.52308 18.4367 9.21768 18.4367C10.9123 18.4367 12.2904 19.8148 12.2904 21.5094C12.2904 23.204 10.9123 24.5821 9.21768 24.5821ZM26.1176 30.7275C24.423 30.7275 23.0449 29.3494 23.0449 27.6548C23.0449 25.9602 24.423 24.5821 26.1176 24.5821C27.8122 24.5821 29.1903 25.9602 29.1903 27.6548C29.1903 29.3494 27.8122 30.7275 26.1176 30.7275Z" fill="white"/>
</svg>
