<svg width="37" height="37" viewBox="0 0 37 37" fill="none" xmlns="http://www.w3.org/2000/svg">
<g clip-path="url(#clip0_1258_1099)">
<path d="M8.42087 3.0611C8.28482 2.88609 8.1131 2.74204 7.9171 2.6385C7.7211 2.53497 7.50532 2.47432 7.28408 2.46059C7.06285 2.44686 6.84122 2.48035 6.63392 2.55886C6.42663 2.63736 6.23841 2.75907 6.08177 2.91591L3.69888 5.3011C2.58579 6.41649 2.17559 7.9951 2.66184 9.38012C4.68001 15.1128 7.96294 20.3176 12.2671 24.6085C16.558 28.9126 21.7628 32.1955 27.4955 34.2137C28.8805 34.7 30.4591 34.2898 31.5745 33.1767L33.9574 30.7938C34.1142 30.6372 34.2359 30.449 34.3144 30.2417C34.3929 30.0344 34.4264 29.8127 34.4127 29.5915C34.399 29.3703 34.3383 29.1545 34.2348 28.9585C34.1313 28.7625 33.9872 28.5908 33.8122 28.4547L28.4956 24.3204C28.3087 24.1754 28.0912 24.0747 27.8597 24.026C27.6281 23.9773 27.3886 23.9818 27.159 24.0392L22.1121 25.2998C21.4384 25.4682 20.7326 25.4593 20.0635 25.2739C19.3943 25.0885 18.7845 24.733 18.2935 24.242L12.6335 18.5798C12.1422 18.089 11.7862 17.4794 11.6005 16.8102C11.4147 16.141 11.4054 15.4351 11.5735 14.7612L12.8363 9.71428C12.8937 9.48474 12.8983 9.24516 12.8496 9.01362C12.8009 8.78207 12.7002 8.56462 12.5552 8.37765L8.42087 3.0611ZM4.34185 1.1783C4.74513 0.774886 5.22962 0.461887 5.76314 0.260081C6.29667 0.0582749 6.86702 -0.0277195 7.43633 0.00780783C8.00564 0.0433351 8.56087 0.199571 9.06517 0.466141C9.56947 0.732712 10.0113 1.10352 10.3613 1.55393L14.4956 6.86818C15.2538 7.843 15.5211 9.1128 15.2215 10.3112L13.961 15.3581C13.8958 15.6195 13.8993 15.8933 13.9712 16.1529C14.0431 16.4126 14.1808 16.6492 14.3712 16.8399L20.0334 22.5021C20.2243 22.6928 20.4613 22.8308 20.7214 22.9027C20.9815 22.9746 21.2558 22.9779 21.5175 22.9123L26.5621 21.6518C27.1535 21.5039 27.7708 21.4924 28.3672 21.6182C28.9637 21.7439 29.5238 22.0036 30.0051 22.3777L35.3194 26.512C37.2298 27.9984 37.405 30.8215 35.695 32.5291L33.3121 34.912C31.6068 36.6174 29.0579 37.3663 26.682 36.5298C20.6007 34.3901 15.0793 30.9087 10.5272 26.3438C5.9626 21.7924 2.48119 16.2717 0.341179 10.1913C-0.493061 7.81765 0.255912 5.26653 1.96126 3.56118L4.34415 1.1783H4.34185Z" fill="white"/>
</g>
<defs>
<clipPath id="clip0_1258_1099">
<rect width="36.8725" height="36.8725" fill="white"/>
</clipPath>
</defs>
</svg>
