<svg width="37" height="37" viewBox="0 0 37 37" fill="none" xmlns="http://www.w3.org/2000/svg">
<path d="M16.1305 21.3479H17.6152L16.8703 19.6237L16.1305 21.3479Z" fill="white"/>
<path fill-rule="evenodd" clip-rule="evenodd" d="M10.376 0C2.77875 0 0 2.76535 0 10.3257V26.4823C0 34.0427 2.77875 36.808 10.376 36.808H26.5991C34.1961 36.808 36.98 34.0427 36.98 26.4823V10.3257C36.98 2.76535 34.2012 0 26.604 0H10.376ZM15.765 22.2167L15.3245 23.2199H14.3217L16.4542 18.4043H17.3209L19.4448 23.2199H18.4153L17.9804 22.2167H15.765ZM31.9019 23.2164H32.8711V18.404H31.9019V23.2164ZM28.0443 21.1491H29.8309V20.2716H28.0443V19.2853H30.6378V18.4076H27.0754V23.2196H30.7312V22.3419H28.0443V21.1491ZM24.1932 21.7177L23.0944 18.404H22.2925L21.1937 21.7177L20.1243 18.4067H19.0787L20.7663 23.2226H21.5792L22.6798 20.0592L23.7804 23.2226H24.6004L26.2836 18.4067H25.265L24.1932 21.7177ZM12.8421 21.1624C12.8421 21.9458 12.4513 22.3644 11.7415 22.3644C11.0279 22.3644 10.635 21.9336 10.635 21.129V18.4073H9.65265V21.1624C9.65265 22.5176 10.4094 23.2948 11.7281 23.2948C13.06 23.2948 13.8235 22.5028 13.8235 21.1222V18.4043H12.8421V21.1624ZM7.30907 18.4043H8.29079V23.2229H7.30907V21.2659H5.09122V23.2229H4.10891V18.4043H5.09122V20.3479H7.30907V18.4043ZM12.3267 6.13467C12.3267 9.51737 15.0912 12.2693 18.49 12.2693C21.8885 12.2693 24.6533 9.51737 24.6533 6.13467H23.7827C23.7827 9.03928 21.4082 11.4025 18.49 11.4025C15.5718 11.4025 13.1972 9.03928 13.1972 6.13467H12.3267Z" fill="white"/>
</svg>
