<svg width="18" height="18" viewBox="0 0 18 18" fill="none" xmlns="http://www.w3.org/2000/svg">
<g clip-path="url(#clip0_1189_4978)">
<path d="M2.13965 1.605C2.13965 1.17933 2.30875 0.77109 2.60974 0.470094C2.91074 0.169098 3.31898 0 3.74465 0L11.3267 0C11.7522 0.000374611 12.1602 0.169718 12.4609 0.4708L14.5099 2.51878C14.8106 2.81966 14.9796 3.2276 14.9796 3.65298V15.515C14.9796 15.9407 14.8106 16.3489 14.5096 16.6499C14.2086 16.9509 13.8003 17.12 13.3746 17.12H3.74465C3.31898 17.12 2.91074 16.9509 2.60974 16.6499C2.30875 16.3489 2.13965 15.9407 2.13965 15.515V1.605ZM3.74465 1.07C3.60276 1.07 3.46668 1.12637 3.36635 1.2267C3.26601 1.32703 3.20965 1.46311 3.20965 1.605V15.515C3.20965 15.6569 3.26601 15.793 3.36635 15.8933C3.46668 15.9936 3.60276 16.05 3.74465 16.05H13.3746C13.5165 16.05 13.6526 15.9936 13.753 15.8933C13.8533 15.793 13.9096 15.6569 13.9096 15.515V3.65298C13.9096 3.51136 13.8534 3.37554 13.7534 3.27527L11.7044 1.22622C11.6041 1.12621 11.4683 1.07003 11.3267 1.07H3.74465Z" fill="#37383C"/>
<path d="M5.88527 4.63689C5.74338 4.63689 5.6073 4.69326 5.50697 4.79359C5.40664 4.89392 5.35027 5.03 5.35027 5.17189V6.77689H8.02527V4.63689H5.88527ZM9.09527 4.63689V6.77689H11.7703V5.17189C11.7703 5.03 11.7139 4.89392 11.6136 4.79359C11.5132 4.69326 11.3772 4.63689 11.2353 4.63689H9.09527ZM11.7703 7.84689H5.35027V9.98689H11.7703V7.84689ZM11.7703 11.0569H9.09527V13.1969H11.2353C11.3772 13.1969 11.5132 13.1405 11.6136 13.0402C11.7139 12.9399 11.7703 12.8038 11.7703 12.6619V11.0569ZM8.02527 13.1969V11.0569H5.35027V12.6619C5.35027 12.8038 5.40664 12.9399 5.50697 13.0402C5.6073 13.1405 5.74338 13.1969 5.88527 13.1969H8.02527ZM4.28027 5.17189C4.28027 4.74622 4.44937 4.33798 4.75037 4.03699C5.05136 3.73599 5.4596 3.56689 5.88527 3.56689H11.2353C11.6609 3.56689 12.0692 3.73599 12.3702 4.03699C12.6712 4.33798 12.8403 4.74622 12.8403 5.17189V12.6619C12.8403 13.0876 12.6712 13.4958 12.3702 13.7968C12.0692 14.0978 11.6609 14.2669 11.2353 14.2669H5.88527C5.4596 14.2669 5.05136 14.0978 4.75037 13.7968C4.44937 13.4958 4.28027 13.0876 4.28027 12.6619V5.17189Z" fill="#37383C"/>
</g>
<defs>
<clipPath id="clip0_1189_4978">
<rect width="17.12" height="17.12" fill="white"/>
</clipPath>
</defs>
</svg>
