<svg width="24" height="24" viewBox="0 0 24 24" fill="none" xmlns="http://www.w3.org/2000/svg">
<path d="M3.71958 12.8325C3.30539 12.8325 2.96958 13.168 2.96958 13.5825V19.9048C2.96958 21.1455 3.97886 22.1548 5.21958 22.1548H18.7719C20.0127 22.1548 21.0219 21.1455 21.0219 19.9048V13.5825C21.0219 13.168 20.6861 12.8325 20.2719 12.8325C19.8578 12.8325 19.5219 13.168 19.5219 13.5825V19.9048C19.5219 20.3186 19.1854 20.6548 18.7719 20.6548H15.2472V20.3887V16.387C15.2472 15.9724 14.9114 15.637 14.4972 15.637H9.50205C9.08786 15.637 8.75205 15.9724 8.75205 16.387V20.39V20.6548H5.21958C4.80613 20.6548 4.46958 20.3186 4.46958 19.9048V13.5825C4.46958 13.168 4.13376 12.8325 3.71958 12.8325ZM10.252 20.6548V17.137H13.7472V20.6548H10.252ZM1.57468 9.27954C2.00095 11.1011 3.60679 12.3733 5.47922 12.3733C6.82102 12.3733 8.0112 11.7104 8.7396 10.6953C9.46799 11.7104 10.6578 12.3733 11.9996 12.3733C13.3414 12.3733 14.5312 11.7104 15.2596 10.6953C15.988 11.7104 17.1782 12.3733 18.52 12.3733C20.3928 12.3733 21.9983 11.1011 22.4245 9.27954C22.5406 8.78369 22.5212 8.23291 22.3674 7.64185L21.2937 3.52637C21.0355 2.53613 20.1401 1.84473 19.1166 1.84473H4.88267C3.85874 1.84473 2.96372 2.53613 2.70554 3.52637L1.63181 7.64258C1.478 8.23291 1.45859 8.78369 1.57468 9.27954ZM3.08347 8.02124L4.1572 3.90503C4.24326 3.57544 4.54136 3.34473 4.88267 3.34473H7.9896V8.36255C7.9896 9.74683 6.8635 10.8733 5.47922 10.8733C4.30698 10.8733 3.3021 10.0771 3.03513 8.93823C2.97544 8.68188 2.99155 8.37354 3.08347 8.02124ZM19.842 3.90503L20.9157 8.02051C21.0077 8.37354 21.0238 8.68188 20.9641 8.93823C20.6975 10.0771 19.6922 10.8733 18.52 10.8733C17.1357 10.8733 16.0096 9.74683 16.0096 8.36255V3.34473H19.1166C19.4579 3.34473 19.756 3.57544 19.842 3.90503ZM11.9996 10.8733C10.6157 10.8733 9.4896 9.74683 9.4896 8.36255V3.34473H14.5096V8.36255C14.5096 9.74683 13.3835 10.8733 11.9996 10.8733Z" fill="white"/>
</svg>
