<svg width="18" height="18" viewBox="0 0 18 18" fill="none" xmlns="http://www.w3.org/2000/svg">
<g clip-path="url(#clip0_1189_4979)">
<path fill-rule="evenodd" clip-rule="evenodd" d="M6.42 2.14014C6.52995 2.14018 6.63722 2.17411 6.7272 2.23729C6.81718 2.30047 6.88552 2.38984 6.9229 2.49324L10.7 12.8787L12.3371 8.3761C12.3748 8.2731 12.4433 8.18419 12.5333 8.12141C12.6232 8.05863 12.7303 8.02502 12.84 8.02514H16.585C16.7269 8.02514 16.863 8.0815 16.9633 8.18184C17.0636 8.28217 17.12 8.41825 17.12 8.56014C17.12 8.70203 17.0636 8.83811 16.9633 8.93844C16.863 9.03877 16.7269 9.09514 16.585 9.09514H13.2145L11.2029 14.627C11.1654 14.7303 11.097 14.8196 11.0071 14.8826C10.9171 14.9457 10.8099 14.9795 10.7 14.9795C10.5901 14.9795 10.4829 14.9457 10.3929 14.8826C10.303 14.8196 10.2346 14.7303 10.1971 14.627L6.42 4.24162L4.7829 8.74311C4.74534 8.84631 4.67693 8.93545 4.58696 8.99843C4.49699 9.0614 4.38982 9.09517 4.28 9.09514H0.535C0.393109 9.09514 0.25703 9.03877 0.156698 8.93844C0.0563659 8.83811 0 8.70203 0 8.56014C0 8.41825 0.0563659 8.28217 0.156698 8.18184C0.25703 8.0815 0.393109 8.02514 0.535 8.02514H3.9055L5.9171 2.49324C5.95448 2.38984 6.02282 2.30047 6.1128 2.23729C6.20279 2.17411 6.31005 2.14018 6.42 2.14014Z" fill="#37383C"/>
</g>
<defs>
<clipPath id="clip0_1189_4979">
<rect width="17.12" height="17.12" fill="white"/>
</clipPath>
</defs>
</svg>
