<svg width="20" height="20" viewBox="0 0 20 20" fill="none" xmlns="http://www.w3.org/2000/svg">
<path fill-rule="evenodd" clip-rule="evenodd" d="M5.58105 2.72653C6.96354 2.44471 8.4516 2.29175 10.0004 2.29175C11.5493 2.29175 13.0373 2.44471 14.4198 2.72653L14.5258 2.74813C16.1047 3.06949 17.1567 3.28361 18.0633 4.44918C18.9601 5.60223 18.9596 6.93941 18.9588 9.01042V10.9897C18.9596 13.0607 18.9601 14.3979 18.0633 15.551C17.1567 16.7166 16.1047 16.9307 14.5258 17.252L14.4198 17.2737C13.0373 17.5554 11.5493 17.7084 10.0004 17.7084C8.4516 17.7084 6.96354 17.5554 5.58105 17.2737L5.47498 17.252C3.89612 16.9307 2.84412 16.7166 1.93758 15.551C1.04076 14.3979 1.04126 13.0607 1.04204 10.9897V9.01042C1.04126 6.93941 1.04076 5.60223 1.93758 4.44918C2.84412 3.28361 3.89612 3.06949 5.47498 2.74813L5.58105 2.72653ZM9.41251 6.87695C9.8446 7.0583 10.3695 7.35144 11.0113 7.70986C11.0958 7.75703 11.1807 7.8039 11.2657 7.85082C11.6852 8.0824 12.1071 8.31533 12.4962 8.59508C12.8458 8.8465 13.1776 9.15808 13.2874 9.6125C13.3491 9.86758 13.3491 10.1326 13.2874 10.3877C13.1776 10.8421 12.8458 11.1537 12.4962 11.4051C12.1071 11.6848 11.6851 11.9178 11.2656 12.1494C11.1806 12.1963 11.0958 12.2432 11.0113 12.2903C10.3695 12.6487 9.84468 12.9418 9.41251 13.1232C8.71001 13.418 7.96509 13.4419 7.35283 12.9402C6.96963 12.6262 6.83417 12.1767 6.77474 11.7237C6.63111 10.6287 6.63105 9.37191 6.77474 8.27652C6.83417 7.82346 6.96963 7.3739 7.35283 7.05992C7.96509 6.55827 8.71001 6.58212 9.41251 6.87695Z" fill="#003F38"/>
</svg>
